<svg xmlns="http://www.w3.org/2000/svg" width="1600" height="720" viewBox="0 0 1600 720" role="img" aria-labelledby="title description">
  <title id="title">CRISOL - The Enterprise Holodeck</title>
  <desc id="description">Simulate pressure, measure judgment, and prevent avoidable loss.</desc>
  <rect width="1600" height="720" fill="#03090d"/>
  <g stroke="#102832" stroke-width="1" opacity="0.72">
    <path d="M0 120H1600M0 240H1600M0 360H1600M0 480H1600M0 600H1600"/>
    <path d="M160 0V720M320 0V720M480 0V720M640 0V720M800 0V720M960 0V720M1120 0V720M1280 0V720M1440 0V720"/>
  </g>
  <rect x="104" y="90" width="1392" height="540" rx="8" fill="#071016" stroke="#27414b" stroke-width="2"/>
  <rect x="104" y="90" width="8" height="540" fill="#22d3ee"/>
  <g transform="translate(166 148)">
    <rect width="58" height="58" rx="8" fill="#08232b" stroke="#22d3ee"/>
    <path d="M29 13l14 6v11c0 9-5.8 15.8-14 19-8.2-3.2-14-10-14-19V19l14-6z" fill="none" stroke="#67e8f9" stroke-width="3"/>
    <path d="M24 30l4 4 8-10" fill="none" stroke="#34d399" stroke-width="3" stroke-linecap="round" stroke-linejoin="round"/>
  </g>
  <text x="166" y="288" fill="#67e8f9" font-family="Arial, sans-serif" font-size="22" font-weight="700">ENTERPRISE READINESS PLATFORM</text>
  <text x="166" y="382" fill="#f4f8fa" font-family="Arial, sans-serif" font-size="92" font-weight="700">CRISOL</text>
  <text x="166" y="438" fill="#a9bbc4" font-family="Arial, sans-serif" font-size="34">The Enterprise Holodeck</text>
  <line x1="166" y1="486" x2="1434" y2="486" stroke="#27414b" stroke-width="2"/>
  <g font-family="Arial, sans-serif">
    <g transform="translate(166 532)">
      <circle cx="17" cy="17" r="17" fill="#08232b" stroke="#22d3ee"/>
      <text x="17" y="23" fill="#67e8f9" font-size="18" font-weight="700" text-anchor="middle">1</text>
      <text x="52" y="24" fill="#dce7ec" font-size="24" font-weight="700">Simulate pressure</text>
    </g>
    <g transform="translate(610 532)">
      <circle cx="17" cy="17" r="17" fill="#08231d" stroke="#34d399"/>
      <text x="17" y="23" fill="#a7f3d0" font-size="18" font-weight="700" text-anchor="middle">2</text>
      <text x="52" y="24" fill="#dce7ec" font-size="24" font-weight="700">Measure judgment</text>
    </g>
    <g transform="translate(1072 532)">
      <circle cx="17" cy="17" r="17" fill="#271d08" stroke="#fbbf24"/>
      <text x="17" y="23" fill="#fde68a" font-size="18" font-weight="700" text-anchor="middle">3</text>
      <text x="52" y="24" fill="#dce7ec" font-size="24" font-weight="700">Prevent avoidable loss</text>
    </g>
  </g>
</svg>
